# xmcd
#
# Track frame offsets: 
#        150
#        15991
#        24225
#        57317
#        84959
#        98850
#        110428
#        142416
#        163554
#        192644
#        215827
#        228248
#        267397
#        325218
#        337702
#
# Disc length: 4736 seconds
#
# Revision: 0
# Processed by: cddbd v1.5.2PL0 Copyright (c) Steve Scherf et al.
# Submitted via: ExactAudioCopy v0.95b4
#
DISCID=cd127e0f
DTITLE=Kartopsi - Muju
DYEAR=2006
DGENRE=Techno
TTITLE0=Himppu kivaa
TTITLE1=Balsamoitu elite
TTITLE2=Kolonnae (hyv‰‰ is‰np‰iv‰‰)
TTITLE3=Lower states of consciousness
TTITLE4=Enlightenment
TTITLE5=Bread company (ookkon‰‰ mun?)
TTITLE6=Huoletonta hyppimist‰
TTITLE7=Pakkelimies tulee
TTITLE8=Merkonomivarras
TTITLE9=Varjow
TTITLE10=Hengedhi
TTITLE11=Pikku poika...
TTITLE12=Intialaista kansanmusaa
TTITLE13=Frank in the jungle biz
TTITLE14=Muz
EXTD=
EXTT0=
EXTT1=
EXTT2=
EXTT3=
EXTT4=
EXTT5=
EXTT6=
EXTT7=
EXTT8=
EXTT9=
EXTT10=
EXTT11=
EXTT12=
EXTT13=
EXTT14=
PLAYORDER=
